<?xml version="1.0" encoding="UTF-8" standalone="no"?>
<!-- Created with Inkscape (http://www.inkscape.org/) -->

<svg
   xmlns:dc="http://purl.org/dc/elements/1.1/"
   xmlns:cc="http://creativecommons.org/ns#"
   xmlns:rdf="http://www.w3.org/1999/02/22-rdf-syntax-ns#"
   xmlns:svg="http://www.w3.org/2000/svg"
   xmlns="http://www.w3.org/2000/svg"
   xmlns:sodipodi="http://sodipodi.sourceforge.net/DTD/sodipodi-0.dtd"
   xmlns:inkscape="http://www.inkscape.org/namespaces/inkscape"
   id="svg3039"
   version="1.1"
   inkscape:version="0.48.3.1 r9886"
   width="192"
   height="192"
   sodipodi:docname="simon_whole.svg"
   inkscape:export-filename="/home/ki/Projects/gifsimon/graphics/simon_whole.png"
   inkscape:export-xdpi="90"
   inkscape:export-ydpi="90">
  <metadata
     id="metadata3045">
    <rdf:RDF>
      <cc:Work
         rdf:about="">
        <dc:format>image/svg+xml</dc:format>
        <dc:type
           rdf:resource="http://purl.org/dc/dcmitype/StillImage" />
        <dc:title />
      </cc:Work>
    </rdf:RDF>
  </metadata>
  <defs
     id="defs3043" />
  <sodipodi:namedview
     pagecolor="#ffffff"
     bordercolor="#666666"
     borderopacity="1"
     objecttolerance="10"
     gridtolerance="10"
     guidetolerance="10"
     inkscape:pageopacity="0"
     inkscape:pageshadow="2"
     inkscape:window-width="1920"
     inkscape:window-height="1056"
     id="namedview3041"
     showgrid="false"
     fit-margin-top="0"
     fit-margin-left="0"
     fit-margin-right="0"
     fit-margin-bottom="0"
     inkscape:zoom="4"
     inkscape:cx="139.78601"
     inkscape:cy="103.39026"
     inkscape:window-x="0"
     inkscape:window-y="24"
     inkscape:window-maximized="1"
     inkscape:current-layer="svg3039"
     showguides="true"
     inkscape:guide-bbox="true">
    <inkscape:grid
       type="xygrid"
       id="grid3015"
       empspacing="5"
       visible="true"
       enabled="true"
       snapvisiblegridlinesonly="true"
       dotted="false" />
  </sodipodi:namedview>
  <path
     style="fill:#000000;fill-opacity:1;stroke:none"
     d="M 87.918556,191.55266 C 52.694428,186.55439 17.511141,162.55579 4.289806,124.03887 -9.7530805,81.501846 12.206085,31.012003 47.96393,12.630537 c 40.006828,-22.812478 93.6509,-14.6117454 124.03939,23.697861 21.50473,27.172611 27.38368,70.765762 9.12057,101.922342 -19.14743,35.2467 -56.60973,57.2049 -93.205334,53.30192 z"
     id="base"
     inkscape:connector-curvature="0" />
  <g
     id="hub">
    <path
       sodipodi:nodetypes="ccccccccc"
       inkscape:connector-curvature="0"
       id="hubbg"
       d="M 84.575325,100.83166 C 75.658803,98.266819 67.09401,92.545217 61.813067,83.887482 57.91271,76.966502 57.916674,68.103725 59.682556,60.383148 62.223081,52.242076 67.52503,45.039715 74.492603,41.325736 c 9.433307,-5.706697 20.581536,-7.10993 31.055667,-5.198135 8.28735,1.919103 15.94335,7.265874 21.38258,14.551075 5.78834,7.839937 7.26337,19.112724 4.30322,28.662632 -3.75553,10.542549 -13.00316,17.163981 -22.24914,20.486266 -9.855014,2.774136 -14.427511,3.318456 -24.409605,1.004086 z"
       style="fill:#cccccc;fill-opacity:1;stroke:#000000;stroke-width:0.53880256;stroke-opacity:1" />
    <text
       transform="scale(0.94081922,1.0629035)"
       sodipodi:linespacing="125%"
       id="brandname"
       y="56.120918"
       x="73.15226"
       style="font-size:16.16407585px;font-style:normal;font-variant:normal;font-weight:bold;font-stretch:normal;line-height:125%;letter-spacing:0px;word-spacing:0px;fill:#000000;fill-opacity:1;stroke:none;font-family:DejaVu Sans;-inkscape-font-specification:DejaVu Sans Bold"
       xml:space="preserve"><tspan
         dx="0 1.0776051 1.0776051 7.3431255e-07 0.53880256"
         y="56.120918"
         x="73.15226"
         id="tspan3869"
         sodipodi:role="line">simon</tspan></text>
    <g
       id="7seggroup">
      <rect
         style="fill:#000000;fill-opacity:1;stroke:none"
         id="7segbg"
         width="49.868591"
         height="22.73358"
         x="70.699043"
         y="67.170341"
         rx="4.0553265"
         ry="4.5815606" />
      <g
         id="7segs"
         transform="translate(-1.3177661,0)">
        <g
           transform="translate(153.94277,26.516504)"
           id="7seg0">
          <rect
             style="fill:#ff00ff;fill-opacity:1;stroke:none"
             id="7seg0a"
             width="8"
             height="2"
             x="-46.625"
             y="42.5"
             ry="1"
             rx="1" />
          <rect
             style="fill:#ff01ff;fill-opacity:1;stroke:none"
             id="7seg0b"
             width="2"
             height="6"
             x="-38.625"
             y="44.5"
             ry="1"
             rx="1" />
          <rect
             style="fill:#ff02ff;fill-opacity:1;stroke:none"
             id="7seg0c"
             width="2"
             height="6"
             x="-38.625"
             y="52.573441"
             ry="1"
             rx="1" />
          <rect
             style="fill:#ff03ff;fill-opacity:1;stroke:none"
             id="7seg0d"
             width="8"
             height="2"
             x="-46.625"
             y="58.573441"
             ry="1"
             rx="1" />
          <rect
             style="fill:#ff04ff;fill-opacity:0.94117647;stroke:none"
             id="7seg0e"
             width="2"
             height="6"
             x="-48.625"
             y="52.573441"
             ry="1"
             rx="1" />
          <rect
             style="fill:#ff05ff;fill-opacity:1;stroke:none"
             id="7seg0f"
             width="2"
             height="6"
             x="-48.625"
             y="44.573441"
             ry="1"
             rx="1" />
          <rect
             style="fill:#ff06ff;fill-opacity:1;stroke:none"
             id="7seg0g"
             width="8"
             height="2"
             x="-46.625"
             y="50.573441"
             ry="1"
             rx="1" />
        </g>
        <g
           transform="translate(139.94277,26.265534)"
           id="7seg1">
          <rect
             style="fill:#ff10ff;fill-opacity:1;stroke:none"
             id="7seg1a"
             width="8"
             height="2"
             x="-46.625"
             y="42.5"
             ry="1"
             rx="1" />
          <rect
             style="fill:#ff11ff;fill-opacity:1;stroke:none"
             id="7seg1b"
             width="2"
             height="6"
             x="-38.625"
             y="44.5"
             ry="1"
             rx="1" />
          <rect
             style="fill:#ff12ff;fill-opacity:1;stroke:none"
             id="7seg1c"
             width="2"
             height="6"
             x="-38.625"
             y="52.573441"
             ry="1"
             rx="1" />
          <rect
             style="fill:#ff13ff;fill-opacity:1;stroke:none"
             id="7seg1d"
             width="8"
             height="2"
             x="-46.625"
             y="58.573441"
             ry="1"
             rx="1" />
          <rect
             style="fill:#ff14ff;fill-opacity:1;stroke:none"
             id="7seg1e"
             width="2"
             height="6"
             x="-48.625"
             y="52.573441"
             ry="1"
             rx="1" />
          <rect
             style="fill:#ff15ff;fill-opacity:1;stroke:none"
             id="7seg1f"
             width="2"
             height="6"
             x="-48.625"
             y="44.573441"
             ry="1"
             rx="1" />
          <rect
             style="fill:#ff16ff;fill-opacity:1;stroke:none"
             id="7seg1g"
             width="8"
             height="2"
             x="-46.625"
             y="50.573441"
             ry="1"
             rx="1" />
        </g>
        <g
           transform="translate(125.94277,26.265534)"
           id="7seg2">
          <rect
             style="fill:#ff20ff;fill-opacity:1;stroke:none"
             id="7seg2a"
             width="8"
             height="2"
             x="-46.625"
             y="42.5"
             ry="1"
             rx="1" />
          <rect
             style="fill:#ff21ff;fill-opacity:1;stroke:none"
             id="7seg2b"
             width="2"
             height="6"
             x="-38.625"
             y="44.5"
             ry="1"
             rx="1" />
          <rect
             style="fill:#ff22ff;fill-opacity:1;stroke:none"
             id="7seg2c"
             width="2"
             height="6"
             x="-38.625"
             y="52.573441"
             ry="1"
             rx="1" />
          <rect
             style="fill:#ff23ff;fill-opacity:1;stroke:none"
             id="7seg2d"
             width="8"
             height="2"
             x="-46.625"
             y="58.573441"
             ry="1"
             rx="1" />
          <rect
             style="fill:#ff24ff;fill-opacity:1;stroke:none"
             id="7seg2e"
             width="2"
             height="6"
             x="-48.625"
             y="52.573441"
             ry="1"
             rx="1" />
          <rect
             style="fill:#ff25ff;fill-opacity:1;stroke:none"
             id="7seg2f"
             width="2"
             height="6"
             x="-48.625"
             y="44.573441"
             ry="1"
             rx="1" />
          <rect
             style="fill:#ff26ff;fill-opacity:1;stroke:none"
             id="7seg2g"
             width="8"
             height="2"
             x="-46.625"
             y="50.573441"
             ry="1"
             rx="1" />
        </g>
      </g>
    </g>
  </g>
  <g
     id="buttons">
    <path
       sodipodi:nodetypes="cssssssssccc"
       inkscape:connector-curvature="0"
       id="button0"
       d="m 147.48116,59.257052 c -4.46086,-0.357981 -8.61643,-0.878446 -9.23461,-1.156575 -0.65565,-0.294996 -1.79085,-2.005756 -2.72452,-4.105869 -5.18204,-11.65602 -16.25963,-20.519576 -29.21862,-23.378792 -1.73749,-0.383351 -3.49156,-0.98653 -3.89793,-1.340396 -0.5932,-0.516548 -0.76989,-2.882269 -0.89626,-11.999658 -0.19067,-13.7572479 -0.41501,-13.2792955 5.98619,-12.7534795 14.47961,1.1894018 31.76904,8.6835985 44.29454,19.1997025 11.58018,9.722444 23.84974,28.829206 23.22951,36.174143 l -0.16485,1.952214 -3.06229,0.167393 c -8.3298,-0.448294 -16.70742,-2.131353 -24.31116,-2.758683 z"
       style="fill:#ff3333;fill-opacity:1;stroke:#000000;stroke-width:0.53880256;stroke-opacity:1" />
    <path
       inkscape:connector-curvature="0"
       id="button1"
       d="m 105.46819,157.59486 c -1.08523,-0.98109 -1.56514,-2.04551 -1.87071,-4.1492 -0.51475,-3.54375 -0.59007,-44.39963 -0.0835,-45.29344 0.20483,-0.36142 2.08326,-1.23938 4.17429,-1.95103 9.5549,-3.25183 15.46256,-7.035091 21.33831,-13.665027 4.14302,-4.674801 7.38785,-11.036974 8.72311,-17.103482 0.36605,-1.663101 1.152,-3.573405 1.74656,-4.245114 1.07663,-1.216335 1.12373,-1.218363 11.59776,-0.499447 14.66597,1.006638 24.24068,2.440718 25.95823,3.887975 1.33057,1.121177 1.35302,1.253017 1.50019,8.808956 0.16646,8.546609 -0.27881,12.390447 -2.21542,19.124639 -1.48985,5.18071 -5.09515,13.6492 -7.03268,16.51906 -0.7112,1.05341 -1.29308,2.09113 -1.29308,2.30603 0,1.1854 -11.70915,14.5784 -15.96785,18.26413 -10.31429,8.92659 -22.2399,14.86147 -36.54451,18.18669 -6.38828,1.485 -8.21549,1.45026 -10.0307,-0.19074 z"
       style="fill:#ffff33;fill-opacity:1;stroke:#000000;stroke-width:0.53880256;stroke-opacity:1" />
    <path
       inkscape:connector-curvature="0"
       id="button2"
       d="M 73.978372,156.05509 C 61.062386,152.77322 48.796357,146.53877 39.761558,138.66371 22.432406,123.559 13.666993,105.90854 12.550925,83.871074 c -0.482284,-9.52302 -0.560846,-9.455683 13.270449,-11.374131 4.460859,-0.618734 11.612417,-1.411945 15.892352,-1.762687 9.511128,-0.779443 9.627769,-0.726727 10.953136,4.950291 3.045611,13.045387 13.246586,24.023127 26.807841,28.849163 2.831895,1.00778 5.776209,2.0912 6.542919,2.40759 l 1.394018,0.57526 -0.01212,21.54976 c -0.0066,11.85237 -0.223504,22.58061 -0.481894,23.84054 -0.682268,3.32675 -2.017961,4.30724 -5.771885,4.23694 -1.711637,-0.0321 -4.936965,-0.52197 -7.167394,-1.08871 z"
       style="fill:#00ccff;fill-opacity:1;stroke:#000000;stroke-width:0.53880256;stroke-opacity:1" />
    <path
       inkscape:connector-curvature="0"
       id="button3"
       d="M 17.051731,62.020151 C 15.927478,60.75001 16.414453,57.592359 18.427088,53.10203 29.334581,28.766649 50.303164,11.967762 77.590471,5.7035486 85.171286,3.9632593 87.451692,3.9058232 88.668244,5.4245361 c 0.83268,1.0394988 0.876559,2.0110354 0.536712,11.8834229 -0.203557,5.913255 -0.589406,11.053368 -0.857437,11.422473 -0.268027,0.369105 -1.443671,0.85332 -2.612538,1.076032 -7.548458,1.438263 -15.569229,5.476327 -21.32321,10.735189 -4.348273,3.974107 -7.205869,7.98963 -9.755163,13.708056 -1.197706,2.686616 -2.063913,3.940074 -2.85753,4.135019 -0.626356,0.15386 -4.560514,0.557828 -8.742567,0.897705 -4.182055,0.339878 -11.367587,1.249489 -15.967848,2.021356 -9.740718,1.634375 -9.255042,1.599715 -10.036932,0.716362 z"
       style="fill:#00cc00;fill-opacity:1;stroke:#000000;stroke-width:0.53880256;stroke-opacity:1" />
  </g>
</svg>
